# xmcd
#
# Track frame offsets: 
#        150
#        41295
#        80921
#        103779
#        135927
#        173159
#        199253
#        222225
#
# Disc length: 3701 seconds
#
# Revision: 2
# Processed by: cddbd v1.5.2PL0 Copyright (c) Steve Scherf et al.
# Submitted via: ExactAudioCopy v0.99pb1
#
DISCID=6b0e7308
DTITLE=Himalayan Feelings - Himalayan Feelings
DYEAR=1900
DGENRE=
TTITLE0=Bihani
TTITLE1=Ukali Orali
TTITLE2=Sorathi - Music Of Gurung Tribes
TTITLE3=Namche - Sherpa's Feeling
TTITLE4=Chandra Grahan - Moon Eclips
TTITLE5=World Music
TTITLE6=Festivals Of Pokhara
TTITLE7=Nepali Vibes
EXTD=
EXTT0=
EXTT1=
EXTT2=
EXTT3=
EXTT4=
EXTT5=
EXTT6=
EXTT7=
PLAYORDER=
